<?xml version="1.0"?>
<svg xmlns="http://www.w3.org/2000/svg" id="Layer_1" data-name="Layer 1" viewBox="0 0 512 512" width="512" height="512"><title>Cancel</title><path d="M344.13,321.43a90.038,90.038,0,1,1-24.78,10.71A89.09,89.09,0,0,1,344.13,321.43Z" style="fill:#6fe3ff"/><path d="M320.58,207.29l23.55,114.14a89.09,89.09,0,0,0-24.78,10.71l-24.22-21.88-20.8,25.52-.04-.01-17.31-5.87V301.07c34.96-14.95,59.4-52.59,59.4-92.49v-.14A22.856,22.856,0,0,0,320.58,207.29Z" style="fill:#6d7375"/><path d="M173.02,301.07a94.039,94.039,0,0,1-32.58-23.53,103.814,103.814,0,0,1-26.82-68.96v-.14c-.25-.04-.51-.09-.76-.15a23.765,23.765,0,0,1-18.19-28.9,17.893,17.893,0,0,1,16-13.62l-.27-11.82,3.22,3.21a15.957,15.957,0,0,0,18.13,3.14,16.34,16.34,0,0,0,4.37-3.05,15.721,15.721,0,0,0,3.1-4.33c1.92-4,5.5-7.4,9.62-7.63,17.27-.97,48.04-2.54,78.2-23.58a126.222,126.222,0,0,0,91.21,38.97h1.1l-.02,5.09a17.893,17.893,0,0,1,16,13.62,23.765,23.765,0,0,1-14.75,27.9,22.856,22.856,0,0,1-4.2,1.15v.14c0,39.9-24.44,77.54-59.4,92.49a83.221,83.221,0,0,1-32.88,6.79H205.89A83.172,83.172,0,0,1,173.02,301.07Z" style="fill:#f7caa5"/><path d="M252.39,98.48a134.1,134.1,0,0,1-25.35,23.23c-30.16,21.04-60.93,22.61-78.2,23.58-4.12.23-7.7,3.63-9.62,7.63a15.721,15.721,0,0,1-3.1,4.33,16.34,16.34,0,0,1-4.37,3.05,15.957,15.957,0,0,1-18.13-3.14l-3.22-3.21-.11-35.84a104.606,104.606,0,1,1,209.21.64l-.12,34.15c-30.8-7.37-55.93-27.79-65.06-53.64Z" style="fill:#6d7375"/><path d="M319.38,152.9l-.03,7.78h-1.1a126.222,126.222,0,0,1-91.21-38.97,134.1,134.1,0,0,0,25.35-23.23l1.93.78C263.45,125.11,288.58,145.53,319.38,152.9Z" style="fill:#3b484c"/><path d="M295.25,342.87l7.55,2.56a89.994,89.994,0,0,0-3.78,122.05H214.9V420.82l.1.1Z" style="fill:#cc7350"/><polygon points="295.25 342.87 215 420.92 214.9 420.82 214.9 371.67 215 371.77 256.98 329.9 274.29 335.77 274.33 335.78 274.33 335.79 295.25 342.87" style="fill:#e2d574"/><path d="M214.9,371.67,173.02,329.9V301.07a83.172,83.172,0,0,0,32.87,6.79H224.1a83.221,83.221,0,0,0,32.88-6.79V329.9L215,371.77Z" style="fill:#edb288"/><path d="M214.9,420.82v46.66H55V405.75A50,50,0,0,1,88.95,358.4l45.8-15.53Z" style="fill:#e48e66"/><polygon points="214.9 371.67 214.9 420.82 134.75 342.87 156.86 335.38 173.02 329.9 214.9 371.67" style="fill:#f8ec7d"/><path d="M173.02,301.07V329.9l-16.16,5.48c-8.07-.02-16-.58-22.64-.63l-1.58-29.49-28.22,29.79a195.5,195.5,0,0,1-24.29-3.79l32.73-122.97c.25.06.51.11.76.15v.14a103.814,103.814,0,0,0,26.82,68.96A94.039,94.039,0,0,0,173.02,301.07Z" style="fill:#6d7375"/><path d="M247.82,427.05h-10a7,7,0,0,0,0,14h10a7,7,0,0,0,0-14Z" style="fill:#63316d"/><path d="M55,474.48H295.908a96.986,96.986,0,1,0,53.646-161.4L328.517,211.116a30.722,30.722,0,0,0,13.612-33.39A24.637,24.637,0,0,0,326.352,160.2l.025-7.07v-.015l.123-34.319a111.606,111.606,0,1,0-223.21-.662l.11,35.817c0,.054,0,.108,0,.162l.14,6.125a24.643,24.643,0,0,0-15.674,17.5,30.686,30.686,0,0,0,16.559,35L73.365,329.459a7,7,0,0,0,5.093,8.6,201.334,201.334,0,0,0,25.251,3.957,6.994,6.994,0,0,0,5.793-2.15L126.521,321.9l.709,13.228a7,7,0,0,0,.691,2.673L86.7,351.771A56.975,56.975,0,0,0,48,405.75v61.73A7,7,0,0,0,55,474.48ZM171.153,337.924,207.9,374.575v29.672L147.833,345.83Zm148.4-100.988,16.432,79.639a95.967,95.967,0,0,0-15.738,6.938l-20.421-18.448a7,7,0,0,0-10.118.772l-17.732,21.755-7.992-2.71V305.551a103.886,103.886,0,0,0,41.694-37.578A111.574,111.574,0,0,0,319.549,236.936ZM221.9,374.775l36.947-36.85,12.959,4.394c.092.036.186.07.28.1l10.078,3.413L221.9,404.445ZM301,337.43l-14.876-5.038,9.781-12,12.209,11.029Q304.411,334.25,301,337.43ZM249.98,327,215,361.883,180.02,327v-15.95a89.524,89.524,0,0,0,25.87,3.815H224.1a89.566,89.566,0,0,0,25.88-3.815ZM221.9,423.974l56.412-54.866a97.154,97.154,0,0,0,6.809,91.372H221.9ZM450,408.5a82.98,82.98,0,1,1-126.933-70.428A82.015,82.015,0,0,1,345.9,328.2h0A83.082,83.082,0,0,1,450,408.5ZM251.328,110.066c8.57,17.206,23.778,31.7,42.814,41.122a120,120,0,0,1-56.363-28.78A141.615,141.615,0,0,0,251.328,110.066ZM145.88,49.09A97.6,97.6,0,0,1,312.5,118.726l-.09,24.892c-24.136-8.108-43.131-24.829-50.935-45.21a181.617,181.617,0,0,0,15.411-23.1,7,7,0,1,0-12.192-6.881,163.418,163.418,0,0,1-17.636,25.515,127.854,127.854,0,0,1-24.023,22.024c-28.289,19.735-57.009,21.346-74.169,22.308l-.416.024c-6.324.353-12.279,4.794-15.536,11.581a8.615,8.615,0,0,1-1.685,2.36,9.305,9.305,0,0,1-2.476,1.732,8.982,8.982,0,0,1-10.191-1.771l-1.171-1.168-.1-32.925A96.967,96.967,0,0,1,145.88,49.09ZM101.469,181.055a10.872,10.872,0,0,1,9.846-8.315,7,7,0,0,0,6.119-5.16,23.036,23.036,0,0,0,17.337-.966,23.377,23.377,0,0,0,6.28-4.4,22.67,22.67,0,0,0,4.48-6.27c1.055-2.2,2.741-3.616,3.7-3.67l.418-.024c16.519-.926,46.528-2.622,76.492-21.56a133.966,133.966,0,0,0,86.422,36.852,7,7,0,0,0,6.121,5.193,10.867,10.867,0,0,1,9.843,8.3,16.765,16.765,0,0,1-10.421,19.7,16,16,0,0,1-2.916.8,7,7,0,0,0-5.811,6.9v.14c0,36.781-22.679,72.168-55.156,86.055-1.369.587-2.75,1.121-4.138,1.625h-.106v.036a75.8,75.8,0,0,1-25.88,4.564H205.89a75.777,75.777,0,0,1-25.87-4.564v-.036h-.105c-1.389-.5-2.772-1.039-4.142-1.626a87.6,87.6,0,0,1-30.142-21.79A97.059,97.059,0,0,1,120.62,208.58v-.14a7,7,0,0,0-5.893-6.912c-.076-.012-.156-.026-.232-.044l-.2-.046a16.765,16.765,0,0,1-12.824-20.383ZM144.3,328.043q-1.752-.067-3.439-.131l-1.234-23.027a7,7,0,0,0-12.072-4.439l-25.832,27.269c-5.255-.608-9.622-1.281-12.914-1.858l22.729-85.4a111.832,111.832,0,0,0,23.709,41.776,102.594,102.594,0,0,0,30.77,23.316v19.329l-10.281,3.485C151.872,328.334,148.029,328.189,144.3,328.043ZM62,405.75a42.983,42.983,0,0,1,29.2-40.721l41.743-14.151,74.959,72.9v36.7H62Z" style="fill:#63316d"/><path d="M343.06,374.66a7,7,0,0,0-9.9,9.9L357.1,408.5,333.16,432.44a7,7,0,0,0,9.9,9.9L367,418.4l23.94,23.941a7,7,0,0,0,9.9-9.9L376.9,408.5l23.941-23.94a7,7,0,0,0-9.9-9.9L367,398.6Z" style="fill:#63316d"/></svg>
