<?xml version="1.0"?>
<svg xmlns="http://www.w3.org/2000/svg" id="Layer_1" data-name="Layer 1" viewBox="0 0 512 512" width="512" height="512"><title>serch user2</title><path d="M478.476,505.368a6.983,6.983,0,0,1-4.951-2.05l-39.683-39.683a7,7,0,1,1,9.9-9.9l39.684,39.684a7,7,0,0,1-4.95,11.95Z" style="fill:#e48e66"/><path d="M373.79,303.68a89.989,89.989,0,1,1-74.14,38.97A90,90,0,0,1,373.79,303.68Z" style="fill:#6fe3ff"/><path d="M311.19,458.33H183.43V401.87l.09.09,75.24-73.17,40.89,13.86a89.994,89.994,0,0,0,11.54,115.68Z" style="fill:#cc7350"/><path d="M282.51,201.68a21.619,21.619,0,0,1-3.94,1.08v.13c0,37.4-22.92,72.69-55.69,86.7a77.991,77.991,0,0,1-30.82,6.37H174.99a78.159,78.159,0,0,1-30.82-6.36,88.123,88.123,0,0,1-30.55-22.06,97.323,97.323,0,0,1-25.14-64.65v-.13c-.24-.04-.48-.09-.72-.14a22.261,22.261,0,0,1-17.68-21.79,22.637,22.637,0,0,1,.63-5.31,16.76,16.76,0,0,1,15-12.76l-.25-11.09,3.02,3.02a15,15,0,0,0,21.09.07,14.513,14.513,0,0,0,2.91-4.05c1.8-3.75,5.16-6.94,9.02-7.16,16.19-.9,45.04-2.38,73.31-22.12a118.28,118.28,0,0,0,85.51,36.55h1.04l-.02,4.78a16.748,16.748,0,0,1,14.99,12.76,22.275,22.275,0,0,1-13.82,26.16Z" style="fill:#f7caa5"/><path d="M291.65,246a61.023,61.023,0,0,1-58.56,73.34l-.23.67-9.98-3.38V289.59c32.77-14.01,55.69-49.3,55.69-86.7v-.13a21.619,21.619,0,0,0,3.94-1.08Z" style="fill:#5f6768"/><path d="M194.81,121.43c-28.27,19.74-57.12,21.22-73.31,22.12-3.86.22-7.22,3.41-9.02,7.16a14.513,14.513,0,0,1-2.91,4.05,15,15,0,0,1-21.09-.07l-3.02-3.02-.1-33.6a98.071,98.071,0,1,1,196.14.6l-.14,39.31h-1.04A118.28,118.28,0,0,1,194.81,121.43Z" style="fill:#5f6768"/><polygon points="258.76 328.79 183.52 401.96 183.43 401.87 183.43 355.79 183.52 355.88 222.88 316.63 232.86 320.01 239.11 322.13 258.76 328.79" style="fill:#e2d574"/><path d="M183.43,355.79l-39.26-39.16V289.6a78.159,78.159,0,0,0,30.82,6.36h17.07a77.991,77.991,0,0,0,30.82-6.37v27.04l-39.36,39.25Z" style="fill:#edb288"/><path d="M183.43,401.87v56.46H33.52V387.74a46.893,46.893,0,0,1,31.83-44.4l42.93-14.55Z" style="fill:#e48e66"/><polygon points="130.32 321.32 144.17 316.63 183.43 355.79 183.43 401.87 108.28 328.79 130.32 321.32" style="fill:#f8ec7d"/><path d="M144.17,289.6v27.03l-13.85,4.69a2.452,2.452,0,0,1-.27-.02c-37.7-3.27-63.25-39.9-53.52-76.47l11.23-42.21c.24.05.48.1.72.14v.13a97.323,97.323,0,0,0,25.14,64.65A88.123,88.123,0,0,0,144.17,289.6Z" style="fill:#5f6768"/><path d="M224.01,421.27h-9.72a7,7,0,1,1,0-14h9.72a7,7,0,0,1,0,14Z" style="fill:#f8ec7d"/></svg>
