<?xml version="1.0"?>
<svg xmlns="http://www.w3.org/2000/svg" id="Layer_1" data-name="Layer 1" viewBox="0 0 512 512" width="512" height="512"><title>Uplaod</title><path d="M344.13,321.43a90.038,90.038,0,1,1-24.78,10.71A89.09,89.09,0,0,1,344.13,321.43Z" style="fill:#6fe3ff"/><path d="M320.58,207.29l23.55,114.14a89.09,89.09,0,0,0-24.78,10.71l-24.22-21.88-20.8,25.52-.04-.01-17.31-5.87V301.07c34.96-14.95,59.4-52.59,59.4-92.49v-.14A22.856,22.856,0,0,0,320.58,207.29Z" style="fill:#5f6768"/><path d="M320.58,207.29a22.856,22.856,0,0,1-4.2,1.15v.14c0,39.9-24.44,77.54-59.4,92.49a83.221,83.221,0,0,1-32.88,6.79H205.89a83.172,83.172,0,0,1-32.87-6.79,94.039,94.039,0,0,1-32.58-23.53,103.814,103.814,0,0,1-26.82-68.96v-.14c-.25-.04-.51-.09-.76-.15a23.765,23.765,0,0,1-18.19-28.9,17.893,17.893,0,0,1,16-13.62l-.27-11.82,3.22,3.21a15.957,15.957,0,0,0,18.13,3.14,16.34,16.34,0,0,0,4.37-3.05,15.721,15.721,0,0,0,3.1-4.33c1.92-4,5.5-7.4,9.62-7.63,17.27-.97,48.04-2.54,78.2-23.58a126.222,126.222,0,0,0,91.21,38.97h1.1l-.02,5.09a17.893,17.893,0,0,1,16,13.62,23.765,23.765,0,0,1-14.75,27.9Z" style="fill:#f7caa5"/><path d="M252.39,98.48a134.1,134.1,0,0,1-25.35,23.23c-30.16,21.04-60.93,22.61-78.2,23.58-4.12.23-7.7,3.63-9.62,7.63a15.721,15.721,0,0,1-3.1,4.33,16.34,16.34,0,0,1-4.37,3.05,15.957,15.957,0,0,1-18.13-3.14l-3.22-3.21-.11-35.84a104.606,104.606,0,1,1,209.21.64l-.12,34.15c-30.8-7.37-55.93-27.79-65.06-53.64Z" style="fill:#5f6768"/><path d="M319.38,152.9l-.03,7.78h-1.1a126.222,126.222,0,0,1-91.21-38.97,134.1,134.1,0,0,0,25.35-23.23l1.93.78C263.45,125.11,288.58,145.53,319.38,152.9Z" style="fill:#494f4f"/><path d="M295.25,342.87l7.55,2.56a89.994,89.994,0,0,0-3.78,122.05H214.9V420.82l.1.1Z" style="fill:#cc7350"/><polygon points="295.25 342.87 215 420.92 214.9 420.82 214.9 371.67 215 371.77 256.98 329.9 274.29 335.77 274.33 335.78 274.33 335.79 295.25 342.87" style="fill:#e2d574"/><path d="M214.9,371.67,173.02,329.9V301.07a83.172,83.172,0,0,0,32.87,6.79H224.1a83.221,83.221,0,0,0,32.88-6.79V329.9L215,371.77Z" style="fill:#edb288"/><path d="M214.9,420.82v46.66H55V405.75A50,50,0,0,1,88.95,358.4l45.8-15.53Z" style="fill:#e48e66"/><polygon points="214.9 371.67 214.9 420.82 134.75 342.87 156.86 335.38 173.02 329.9 214.9 371.67" style="fill:#f8ec7d"/><path d="M173.02,301.07V329.9l-16.16,5.48c-8.07-.02-16-.58-22.64-.63l-1.58-29.49-28.22,29.79a195.5,195.5,0,0,1-24.29-3.79l32.73-122.97c.25.06.51.11.76.15v.14a103.814,103.814,0,0,0,26.82,68.96A94.039,94.039,0,0,0,173.02,301.07Z" style="fill:#5f6768"/><path d="M247.82,441.05h-10a7,7,0,0,1,0-14h10a7,7,0,0,1,0,14Z" style="fill:#f8ec7d"/><path d="M371.769,365.326a7,7,0,0,0-9.538,0l-31.47,29.29a7,7,0,1,0,9.538,10.248L360,386.528V446.55a7,7,0,0,0,14,0V386.528l19.7,18.336a7,7,0,0,0,9.538-10.248Z" style="fill:#2561a1"/></svg>
